# xmcd
#
# Track frame offsets:
#	150
#	16762
#	32050
#	47045
#	67865
#	88187
#	100435
#	118982
#	136365
#	156292
#	170432
#
# Disc length: 2552 seconds
#
# Revision: 1
# Processed by: cddbd v1.5.1PL0 Copyright (c) Steve Scherf et al.
# Submitted via: CDex 1.50Beta5
#
DISCID=9009f60b
DTITLE=小椋佳 - スーパー・バリュー〜COLLECTION1/小椋佳
DYEAR=2001
DGENRE=
TTITLE0=俺たちの旅
TTITLE1=少しは私に愛を下さい
TTITLE2=白い一日
TTITLE3=いつの日か旅する者よ
TTITLE4=恋、してしまうもの
TTITLE5=さらば青春
TTITLE6=シクラメンのかほり
TTITLE7=めまい
TTITLE8=流れるなら
TTITLE9=しおさいの詩
TTITLE10=美しい暮らし
EXTD=
EXTT0=
EXTT1=
EXTT2=
EXTT3=
EXTT4=
EXTT5=
EXTT6=
EXTT7=
EXTT8=
EXTT9=
EXTT10=
PLAYORDER=
